<svg width="25" height="24" viewBox="0 0 25 24" fill="" xmlns="http://www.w3.org/2000/svg">
<path fill-rule="evenodd" clip-rule="evenodd" d="M12.042 18C8.12522 18 4.78951 15.4964 3.55401 12C4.78951 8.50359 8.12522 6 12.042 6C15.9597 6 19.2945 8.50354 20.53 12C19.2945 15.4965 15.9597 18 12.042 18ZM12.042 4C7.11577 4 2.94708 7.23851 1.54594 11.7004C1.48469 11.8954 1.48469 12.1046 1.54594 12.2996C2.94708 16.7615 7.11577 20 12.042 20C16.9693 20 21.1369 16.7614 22.5381 12.2996C22.5993 12.1046 22.5993 11.8954 22.5381 11.7004C21.1369 7.23856 16.9693 4 12.042 4ZM10.6278 10.5858C11.0029 10.2107 11.5116 10 12.042 10C12.5724 10 13.0811 10.2107 13.4562 10.5858C13.8313 10.9609 14.042 11.4696 14.042 12C14.042 12.5304 13.8313 13.0391 13.4562 13.4142C13.0811 13.7893 12.5724 14 12.042 14C11.5116 14 11.0029 13.7893 10.6278 13.4142C10.2527 13.0391 10.042 12.5304 10.042 12C10.042 11.4696 10.2527 10.9609 10.6278 10.5858ZM12.042 8C10.9811 8 9.96371 8.42143 9.21356 9.17157C8.46342 9.92172 8.04199 10.9391 8.04199 12C8.04199 13.0609 8.46342 14.0783 9.21356 14.8284C9.96371 15.5786 10.9811 16 12.042 16C13.1029 16 14.1203 15.5786 14.8704 14.8284C15.6206 14.0783 16.042 13.0609 16.042 12C16.042 10.9391 15.6206 9.92172 14.8704 9.17157C14.1203 8.42143 13.1029 8 12.042 8Z" fill=""/>
</svg>
